#Comment line ignore any data following # character 
#Hierarchical Translation and Rotation (.htr) file 
[Header]	
#Header keywords are followed by a single value 
FileType HTR		#Single word string
DataType HTRS		#Translation followed by rotation and scale data
FileVersion 1		#integer
NumSegments 14		#integer
NumFrames 8		#integer
DataFrameRate 30		#integer, data frame rate in this file
EulerRotationOrder ZYX
CalibrationUnits mm
RotationUnits Degrees
GlobalAxisofGravity Y
BoneLengthAxis Y
ScaleFactor 1.00
[SegmentNames&Hierarchy]
#CHILD	PARENT
MASTER GLOBAL
weapon MASTER
barrel_root weapon
middle_left_energyLow_part1 weapon
middle_left_energyLow_part2 weapon
middle_left_root weapon
middle_right_energyLow_part1 weapon
middle_top weapon
barrel1_top_root barrel_root
barrel2_top_root barrel_root
barrel3_top_root barrel_root
barrel1_top_back barrel1_top_root
barrel2_top_back barrel2_top_root
barrel3_top_back barrel3_top_root
[BasePosition]
#SegmentName Tx, Ty, Tz, Rx, Ry, Rz, BoneLength
MASTER 0.000000 0.000000 0.000000 -90.000000 0.000000 0.000000 10.000000 
weapon 0.000000 0.000000 0.000000 0.000000 0.000000 0.000000 10.000000 
barrel_root 0.000000 0.000000 0.000000 0.000000 0.000000 0.000000 10.000000 
middle_left_energyLow_part1 0.000000 0.000000 0.000000 0.000000 0.000000 0.000000 10.000000 
middle_left_energyLow_part2 0.000000 0.000000 0.000000 0.000000 0.000000 0.000000 10.000000 
middle_left_root 0.000000 0.000000 0.000000 0.000000 0.000000 0.000000 10.000000 
middle_right_energyLow_part1 0.000000 0.000000 0.000000 0.000000 0.000000 0.000000 10.000000 
middle_top 0.000000 0.000000 0.000000 0.000000 0.000000 0.000000 10.000000 
barrel1_top_root 0.000000 0.000000 0.000000 0.000000 0.000000 0.000000 10.000000 
barrel2_top_root 0.000000 0.000000 0.000000 0.000000 0.000000 0.000000 10.000000 
barrel3_top_root 0.000000 0.000000 0.000000 0.000000 0.000000 0.000000 10.000000 
barrel1_top_back 0.000000 0.000000 0.000000 0.000000 0.000000 0.000000 10.000000 
barrel2_top_back 0.000000 0.000000 0.000000 0.000000 0.000000 0.000000 10.000000 
barrel3_top_back 0.000000 0.000000 0.000000 0.000000 0.000000 0.000000 10.000000 
#Beginning of Data. Separated by tabs
#Fr	Tx	Ty	Tz	Rx	Ry	Rz	SF
[MASTER]
1 0.000000 0.000000 0.000000 0.000000 -0.000000 0.000000 0.000000
2 0.000000 0.000000 0.000000 0.000000 -0.000000 0.000000 0.000000
3 0.000000 0.000000 0.000000 0.000000 -0.000000 0.000000 0.000000
4 0.000000 0.000000 0.000000 0.000000 -0.000000 0.000000 0.000000
5 0.000000 0.000000 0.000000 0.000000 -0.000000 0.000000 0.000000
6 0.000000 0.000000 0.000000 0.000000 -0.000000 0.000000 0.000000
7 0.000000 0.000000 0.000000 0.000000 -0.000000 0.000000 0.000000
8 0.000000 0.000000 0.000000 0.000000 -0.000000 0.000000 0.000000
[weapon]
1 -0.000057 -104.980545 30.104597 0.000000 0.000000 -0.000020 109.211723
2 -0.000057 -104.980545 30.104597 0.000000 0.000000 -0.000020 109.211723
3 -0.000057 -104.980545 30.104597 0.000000 0.000000 -0.000020 109.211723
4 -0.000057 -104.980545 30.104597 0.000000 0.000000 -0.000020 109.211723
5 -0.000057 -104.980545 30.104597 0.000000 0.000000 -0.000020 109.211723
6 -0.000057 -104.980545 30.104597 0.000000 0.000000 -0.000020 109.211723
7 -0.000057 -104.980545 30.104597 0.000000 0.000000 -0.000020 109.211723
8 -0.000057 -104.980545 30.104597 0.000000 0.000000 -0.000020 109.211723
[barrel_root]
1 0.000019 259.831696 -55.258556 0.000000 -0.000000 0.000000 265.642670
2 0.000076 196.667252 -55.258556 0.000000 -0.000000 0.000000 204.282944
3 0.000019 133.502640 -55.258484 0.000000 -0.000000 0.000000 144.486862
4 0.000076 146.669235 -55.258484 0.000000 -0.000000 0.000000 156.733414
5 0.000057 159.835892 -55.258484 0.000000 -0.000000 0.000000 169.118332
6 0.000076 146.669235 -55.258484 0.000000 -0.000000 0.000000 156.733414
7 0.000019 133.502640 -55.258484 0.000000 -0.000000 0.000000 144.486862
8 0.000076 142.860504 -55.258484 0.000000 -0.000000 0.000000 153.175125
[middle_left_energyLow_part1]
1 -103.546631 -30.653076 69.983971 0.000005 -24.999975 -0.000022 128.682846
2 -103.546631 -30.653076 69.983971 0.000004 -19.791349 -0.000021 128.682846
3 -103.546631 -30.653076 69.983971 0.000003 -14.582760 -0.000021 128.682846
4 -103.546631 -30.653076 69.983971 0.000003 -16.178381 -0.000021 128.682846
5 -103.546631 -30.653076 69.983971 0.000003 -17.773998 -0.000021 128.682846
6 -103.546631 -30.653076 69.983971 0.000003 -16.178381 -0.000021 128.682846
7 -103.546631 -30.653076 69.983971 0.000003 -14.582760 -0.000021 128.682846
8 -103.546631 -30.653076 69.983971 0.000003 -15.159760 -0.000021 128.682846
[middle_left_energyLow_part2]
1 -127.959503 -32.015915 48.459774 -0.000035 70.436806 -0.000050 140.524033
2 -127.959503 -32.015915 48.459774 -0.000023 62.438393 -0.000038 140.524033
3 -127.959503 -32.015915 48.459774 -0.000016 54.439899 -0.000031 140.524033
4 -127.959503 -32.015915 48.459774 -0.000018 56.524433 -0.000033 140.524033
5 -127.959503 -32.015915 48.459774 -0.000019 58.608974 -0.000034 140.524033
6 -127.959503 -32.015915 48.459774 -0.000018 56.524441 -0.000033 140.524033
7 -127.959503 -32.015915 48.459774 -0.000016 54.439899 -0.000031 140.524033
8 -127.959503 -32.015915 48.459774 -0.000017 55.127289 -0.000032 140.524033
[middle_left_root]
1 -154.820511 -30.653000 11.900329 -0.000026 -64.999962 -179.999969 158.273865
2 -154.820511 -30.653000 11.900329 -0.000028 -66.105606 -179.999969 158.273865
3 -154.820511 -30.653000 11.900329 -0.000032 -68.734650 -179.999954 158.273865
4 -154.820511 -30.653000 11.900329 -0.000039 -71.855247 -179.999954 158.273865
5 -154.820511 -30.653000 11.900329 -0.000046 -74.435371 -179.999939 158.273865
6 -154.820511 -30.653000 11.900329 -0.000053 -76.106995 -179.999939 158.273865
7 -154.820511 -30.653000 11.900329 -0.000056 -76.795670 -179.999924 158.273865
8 -154.820511 -30.653000 11.900329 -0.000046 -74.435371 -179.999939 158.273865
[middle_right_energyLow_part1]
1 94.141273 -29.615097 69.983971 -0.000005 -24.999975 -179.999985 120.985085
2 94.141273 -29.615097 69.983971 -0.000004 -19.659273 -179.999985 120.985085
3 94.141273 -29.615097 69.983971 -0.000003 -14.318546 -179.999985 120.985085
4 94.141273 -29.615097 69.983971 -0.000003 -15.815778 -179.999985 120.985085
5 94.141273 -29.615097 69.983971 -0.000003 -17.312996 -179.999985 120.985085
6 94.141273 -29.615097 69.983971 -0.000003 -15.815778 -179.999985 120.985085
7 94.141273 -29.615097 69.983971 -0.000003 -14.318546 -179.999985 120.985085
8 94.141273 -29.615097 69.983971 -0.000003 -14.910255 -179.999985 120.985085
[middle_top]
1 -3.220482 -56.650467 59.132381 0.000000 -0.000000 0.000000 81.952950
2 -3.220482 -56.650467 59.132381 0.000000 -0.000000 0.000000 81.952950
3 -3.220482 -56.650467 59.132381 0.000000 -0.000000 0.000000 81.952950
4 -3.220482 -56.650467 59.132381 0.000000 -0.000000 0.000000 81.952950
5 -3.220482 -56.650467 59.132381 0.000000 -0.000000 0.000000 81.952950
6 -3.220482 -56.650467 59.132381 0.000000 -0.000000 0.000000 81.952950
7 -3.220482 -56.650467 59.132381 0.000000 -0.000000 0.000000 81.952950
8 -3.220482 -56.650467 59.132381 0.000000 -0.000000 0.000000 81.952950
[barrel1_top_root]
1 0.000076 96.240532 0.000076 0.000000 -0.000000 0.000000 96.240532
2 0.000038 96.240616 0.000229 0.000000 -0.000000 0.000000 96.240616
3 0.000057 96.240616 0.000076 0.000000 -0.000000 0.000000 96.240616
4 0.000000 96.240616 0.000229 0.000000 -0.000000 0.000000 96.240616
5 0.000038 96.240463 0.000153 0.000000 -0.000000 0.000000 96.240463
6 0.000000 96.240616 0.000229 0.000000 -0.000000 0.000000 96.240616
7 0.000057 96.240616 0.000076 0.000000 -0.000000 0.000000 96.240616
8 0.000000 96.240463 0.000076 0.000000 -0.000000 0.000000 96.240463
[barrel2_top_root]
1 0.000000 124.140244 0.000229 0.000016 -55.000134 -0.000032 124.140244
2 0.000000 124.140007 0.000153 0.000016 -55.000149 -0.000032 124.140007
3 0.000057 124.140007 0.000000 0.000016 -55.000134 -0.000032 124.140007
4 -0.000038 124.139938 0.000153 0.000016 -55.000134 -0.000032 124.139938
5 0.000019 124.139938 0.000076 0.000016 -55.000134 -0.000032 124.139938
6 -0.000038 124.139938 0.000153 0.000016 -55.000134 -0.000032 124.139938
7 0.000057 124.140007 0.000000 0.000016 -55.000134 -0.000032 124.140007
8 -0.000038 124.139938 0.000000 0.000016 -55.000134 -0.000032 124.139938
[barrel3_top_root]
1 0.000038 69.591675 0.000229 -0.000012 55.000061 0.000140 69.591675
2 0.000076 69.591522 0.000153 -0.000012 55.000061 0.000140 69.591522
3 0.000000 69.591522 0.000076 -0.000012 55.000061 0.000140 69.591522
4 0.000000 69.591446 0.000153 -0.000012 55.000061 0.000140 69.591446
5 0.000057 69.591446 0.000153 -0.000012 55.000061 0.000140 69.591446
6 0.000000 69.591446 0.000153 -0.000012 55.000061 0.000140 69.591446
7 0.000000 69.591522 0.000076 -0.000012 55.000061 0.000140 69.591522
8 0.000000 69.591362 0.000076 -0.000012 55.000061 0.000140 69.591370
[barrel1_top_back]
1 -3.343849 98.041451 186.672287 -0.000075 -0.000000 -0.000020 210.878754
2 -3.343830 98.041611 186.671967 -11.611393 -0.000002 -0.000020 210.878540
3 -3.343906 98.041534 186.672134 -23.222694 -0.000004 -0.000020 210.878662
4 -3.343830 98.041451 186.672287 -23.222694 -0.000004 -0.000020 210.878754
5 -3.343849 98.041687 186.672043 -23.222694 -0.000004 -0.000020 210.878662
6 -3.343830 98.041451 186.672287 -23.222694 -0.000004 -0.000020 210.878754
7 -3.343906 98.041534 186.672134 -23.222694 -0.000004 -0.000020 210.878662
8 -3.343830 98.041534 186.672043 -23.222694 -0.000004 -0.000020 210.878586
[barrel2_top_back]
1 3.886032 70.142365 185.630524 -0.000075 -0.000000 -0.000020 198.478577
2 3.886032 70.142365 185.630554 -11.159277 -0.002188 -0.007219 198.478607
3 3.886108 70.142365 185.630676 -22.318478 -0.005727 -0.013859 198.478714
4 3.886185 70.142281 185.630722 -22.318478 -0.005727 -0.013859 198.478729
5 3.886261 70.142281 185.630722 -22.318478 -0.005727 -0.013859 198.478729
6 3.886185 70.142281 185.630722 -22.318478 -0.005727 -0.013859 198.478729
7 3.886108 70.142365 185.630676 -22.318478 -0.005727 -0.013859 198.478714
8 3.886185 70.142365 185.630676 -22.318478 -0.005727 -0.013859 198.478714
[barrel3_top_back]
1 -0.050125 125.495064 180.152435 -0.000075 -0.000000 -0.000020 219.553879
2 -0.050049 125.495148 180.152359 -9.098863 -0.000002 -0.000020 219.553879
3 -0.050049 125.495224 180.152359 -18.197647 -0.000003 -0.000020 219.553909
4 -0.050201 125.495300 180.152512 -18.197647 -0.000003 -0.000020 219.554077
5 -0.050125 125.495148 180.152435 -18.197647 -0.000003 -0.000020 219.553940
6 -0.050201 125.495300 180.152512 -18.197647 -0.000003 -0.000020 219.554077
7 -0.050049 125.495224 180.152359 -18.197647 -0.000003 -0.000020 219.553909
8 -0.050125 125.495224 180.152435 -18.197647 -0.000003 -0.000020 219.553986
